<?xml version="1.0" encoding="UTF-8"?>
<svg version="1.1" xmlns="http://www.w3.org/2000/svg" width="341" height="337">
<path d="M0 0 C1.30101166 0.70362566 2.60459712 1.40250464 3.91015625 2.09765625 C11.81891425 6.34486681 18.54170609 10.68639292 25 17 C26.22367341 18.04811427 27.45294075 19.08973019 28.6875 20.125 C41.16666897 31.02547892 52.39231005 42.82027874 61 57 C61.75603516 58.18722656 61.75603516 58.18722656 62.52734375 59.3984375 C80.0800214 87.42685115 87.22943583 123.21949009 84 156 C83.90728605 157.41648172 83.81759532 158.83316363 83.73046875 160.25 C82.37577147 179.21779596 76.64031401 198.1654363 68.0625 215.125 C67.72798828 215.80175781 67.39347656 216.47851562 67.04882812 217.17578125 C64.96158877 221.33417333 62.61269402 225.1417193 60 229 C59.28542352 230.21282708 58.58144482 231.43194417 57.88671875 232.65625 C53.91305453 239.62919335 50.52808075 245.13593983 44 250 C42.62986661 251.63654821 41.2879728 253.29803595 40 255 C39.0206121 256.02019573 38.02104551 257.02149805 37 258 C36.12601562 258.89912109 36.12601562 258.89912109 35.234375 259.81640625 C27.0317309 267.83262662 17.58735694 275.30842269 7.421875 280.6640625 C4.96770731 281.97168393 4.96770731 281.97168393 2.640625 283.5859375 C-19.34310671 297.95991593 -49.85087899 302.5359071 -75.65576172 302.03271484 C-77.32911813 302.00936244 -79.00276246 302.003842 -80.67626953 302.01025391 C-101.37839875 302.07670778 -123.11546764 298.73140238 -141.75 289.1875 C-143.30654297 288.39472656 -143.30654297 288.39472656 -144.89453125 287.5859375 C-145.91933594 287.06257813 -146.94414062 286.53921875 -148 286 C-149.81184734 285.10284738 -151.62429521 284.20690595 -153.4375 283.3125 C-156.72244478 281.67527512 -159.85263229 279.88842062 -163 278 C-163.825 277.71125 -164.65 277.4225 -165.5 277.125 C-168.72526286 275.67363171 -170.53790309 273.52214806 -173 271 C-174.010625 270.34 -175.02125 269.68 -176.0625 269 C-179.12562789 266.91446612 -180.71459396 264.89036646 -183 262 C-186.30302172 258.91617194 -189.76133187 256.0024273 -193.2734375 253.16015625 C-199.28605228 248.14280364 -203.01292251 242.68832249 -207 236 C-209.86580307 231.56394268 -209.86580307 231.56394268 -213.4609375 227.75 C-215.71949913 225.18188932 -216.69586866 222.16046504 -217.875 219 C-218.40150077 217.6332863 -218.9301622 216.26740308 -219.4609375 214.90234375 C-219.72100586 214.23315918 -219.98107422 213.56397461 -220.24902344 212.87451172 C-221.24307646 210.39325714 -222.35954917 207.97951998 -223.5 205.5625 C-224.33935858 203.71105309 -225.17229115 201.85668429 -226 200 C-226.49628906 198.90429688 -226.99257812 197.80859375 -227.50390625 196.6796875 C-238.14190773 171.82878248 -239.20410987 140.28972745 -234 114 C-233.88172852 113.33629395 -233.76345703 112.67258789 -233.64160156 111.98876953 C-229.77814904 90.43502993 -221.4361407 68.12372327 -208.01171875 50.6640625 C-205.11198217 46.82402299 -202.55033831 42.77758111 -199.95703125 38.7265625 C-196.33226896 33.67649448 -191.69542163 29.81556192 -186.96484375 25.84375 C-184.89019934 23.9985603 -184.89019934 23.9985603 -183.09375 21.5 C-180.80064511 18.76196431 -178.63003835 17.30393378 -175.5625 15.5 C-172.45733813 13.6083027 -170.07671124 12.08064515 -167.5625 9.4375 C-164.11091739 6.15428728 -160.22198228 4.45170082 -155.9375 2.4296875 C-153.05456034 1.08566277 -153.05456034 1.08566277 -150.671875 -0.4296875 C-146.99383188 -2.59134442 -143.14892702 -4.27721829 -139.25 -6 C-138.48945313 -6.34289063 -137.72890625 -6.68578125 -136.9453125 -7.0390625 C-130.04175912 -10.10470824 -123.07418448 -12.90240227 -115.5625 -14 C-111.90809132 -14.55610567 -108.2589058 -15.12025669 -104.6171875 -15.75390625 C-69.35832569 -21.87315158 -31.36313064 -18.42637119 0 0 Z " fill="#FDFCF5" transform="translate(247,28)"/>
<path d="M0 0 C2.97 0 5.94 0 9 0 C9 1.65 9 3.3 9 5 C34.74 5 60.48 5 87 5 C87 7.97 87 10.94 87 14 C61.26 14 35.52 14 9 14 C9.33 35.12 9.66 56.24 10 78 C12.64 75.36 15.28 72.72 18 70 C21.484375 67.72265625 21.484375 67.72265625 24.75 66.0625 C25.83796875 65.49660156 26.9259375 64.93070312 28.046875 64.34765625 C36.24573081 60.60611491 47.05456703 60.49369331 55.5 63.625 C64.24748139 67.77388835 69.15231655 74.01986475 73.25 82.625 C77.43185861 95.86755227 75.16921991 109.66480911 69.02124023 121.81005859 C64.44909848 130.2817978 57.62529474 137.204776 50 143 C49.01 143 48.02 143 47 143 C43.95895097 139.09007982 43.95895097 139.09007982 44.0703125 136.1328125 C45.4502925 132.96697603 48.00915051 131.25487475 50.625 129.125 C58.31740269 122.51696872 64.11317653 113.34236397 65.20874023 103.03637695 C66.0309694 90.41086239 66.0309694 90.41086239 60.3125 79.53125 C59 78 59 78 59 76 C57.67741528 75.31225595 56.34013497 74.65288627 55 74 C53.989375 73.46375 52.97875 72.9275 51.9375 72.375 C46.39005917 70.05861678 40.32074438 70.05350764 34.57421875 71.69140625 C29.07144688 73.96284404 24.46975254 77.11321617 20 81 C19.16025635 81.63969727 18.3205127 82.27939453 17.45532227 82.93847656 C10.99545554 88.94115039 9.38900666 94.10179562 8.89680481 102.89575195 C8.73800625 109.35143825 8.78338754 115.79369093 8.875 122.25 C8.88253906 124.94144569 8.87505693 127.63277965 8.8671875 130.32421875 C8.85939948 136.88379715 8.90766318 143.44110702 9 150 C6.03 150 3.06 150 0 150 C0 136.47 0 122.94 0 109 C-4.62 112.63 -9.24 116.26 -14 120 C-17.77489446 121.92676905 -21.08647024 123.58746035 -25 125 C-25.8971875 125.35835938 -26.794375 125.71671875 -27.71875 126.0859375 C-37.75111431 128.88066756 -49.65380568 128.63488247 -58.9375 123.75 C-64.67210512 120.48900948 -69.57221454 117.15504614 -73.1875 111.5625 C-73.67605469 110.82128906 -74.16460937 110.08007812 -74.66796875 109.31640625 C-79.39269711 101.10008977 -79.32549087 90.89276159 -76.9375 81.8125 C-71.14953928 65.65444299 -59.16840858 53.61536692 -44 46 C-35.78351543 42.49831704 -27.23688909 39.85434819 -18.26171875 39.90234375 C-17.29967529 39.90484131 -16.33763184 39.90733887 -15.34643555 39.90991211 C-14.13898682 39.91901611 -12.93153809 39.92812012 -11.6875 39.9375 C-7.830625 39.958125 -3.97375 39.97875 0 40 C0 31.42 0 22.84 0 14 C-29.37 14 -58.74 14 -89 14 C-89 6 -89 6 -88 5 C-85.2611158 4.90483789 -82.54752059 4.87445406 -79.80834961 4.88647461 C-78.94988937 4.88632858 -78.09142914 4.88618256 -77.20695496 4.8860321 C-74.35539262 4.88673153 -71.50389475 4.8945253 -68.65234375 4.90234375 C-66.68079158 4.90420782 -64.70923895 4.90563178 -62.73768616 4.90663147 C-57.53773733 4.91045749 -52.33781625 4.92028848 -47.13787842 4.93133545 C-41.83606339 4.94154778 -36.5342439 4.94612871 -31.23242188 4.95117188 C-20.82160237 4.96191067 -10.41080349 4.97898809 0 5 C0 3.35 0 1.7 0 0 Z " fill="#050505" transform="translate(167,93)"/>
<path d="M0 0 C25.74 0 51.48 0 78 0 C78 2.97 78 5.94 78 9 C52.26 9 26.52 9 0 9 C0.33 30.12 0.66 51.24 1 73 C3.64 70.36 6.28 67.72 9 65 C12.484375 62.72265625 12.484375 62.72265625 15.75 61.0625 C16.83796875 60.49660156 17.9259375 59.93070313 19.046875 59.34765625 C27.24573081 55.60611491 38.05456703 55.49369331 46.5 58.625 C55.24748139 62.77388835 60.15231655 69.01986475 64.25 77.625 C68.43185861 90.86755227 66.16921991 104.66480911 60.02124023 116.81005859 C55.44909848 125.2817978 48.62529474 132.204776 41 138 C40.01 138 39.02 138 38 138 C34.95895097 134.09007982 34.95895097 134.09007982 35.0703125 131.1328125 C36.4502925 127.96697603 39.00915051 126.25487475 41.625 124.125 C49.31740269 117.51696872 55.11317653 108.34236397 56.20874023 98.03637695 C57.0309694 85.41086239 57.0309694 85.41086239 51.3125 74.53125 C50 73 50 73 50 71 C48.67741528 70.31225595 47.34013497 69.65288627 46 69 C44.989375 68.46375 43.97875 67.9275 42.9375 67.375 C37.39005917 65.05861678 31.32074438 65.05350764 25.57421875 66.69140625 C15.1881598 70.97857048 8.74492315 78.22535461 2 87 C1.41015625 85.140625 1.41015625 85.140625 1 83 C2.4375 80.75 2.4375 80.75 4 79 C3.34 79 2.68 79 2 79 C1.505 79.99 1.505 79.99 1 81 C-0.47871399 79.92289734 -0.47871399 79.92289734 -2 78 C-2.36076355 74.98176575 -2.36076355 74.98176575 -2.34057617 71.23364258 C-2.34093778 70.53942798 -2.34129938 69.84521338 -2.34167194 69.12996197 C-2.33943411 66.88452424 -2.31659586 64.63983518 -2.29296875 62.39453125 C-2.28855746 61.00761271 -2.28549719 59.62068918 -2.28381348 58.23376465 C-2.26808983 53.09326689 -2.2262061 47.95287608 -2.1875 42.8125 C-2.125625 31.324375 -2.06375 19.83625 -2 8 C24.07 8 50.14 8 77 8 C77 5.69 77 3.38 77 1 C51.59 1 26.18 1 0 1 C0 0.67 0 0.34 0 0 Z " fill="#161517" transform="translate(176,98)"/>
<path d="M0 0 C0.66 0 1.32 0 2 0 C2.15380303 8.68380637 2.30198427 17.36768508 2.4429636 26.05170918 C2.50860115 30.08392404 2.57618417 34.11608685 2.64819336 38.14819336 C2.71759808 42.03845426 2.78191847 45.92876888 2.84269524 49.81917381 C2.86679474 51.30437466 2.89273476 52.7895468 2.92053413 54.274683 C2.95911972 56.35275409 2.99119542 58.43083039 3.02172852 60.5090332 C3.04171402 61.69261917 3.06169952 62.87620514 3.08229065 64.09565735 C3 67 3 67 2 70 C1.34 70 0.68 70 0 70 C0 46.9 0 23.8 0 0 Z " fill="#282C42" transform="translate(174,106)"/>
<path d="M0 0 C0.66 0 1.32 0 2 0 C2 13.53 2 27.06 2 41 C-1 38 -1 38 -1.34057617 34.86132812 C-1.32486572 33.59740234 -1.30915527 32.33347656 -1.29296875 31.03125 C-1.28872391 30.35453247 -1.28447906 29.67781494 -1.28010559 28.98059082 C-1.26333584 26.81998664 -1.22572513 24.66032071 -1.1875 22.5 C-1.17244765 21.04558655 -1.1587602 19.59115829 -1.14648438 18.13671875 C-1.11237196 14.42421783 -1.05630718 10.71223133 -1 7 C-1 6.01 -1 5.02 -1 4 C-2.98 4.99 -2.98 4.99 -5 6 C-3.38405168 3.95880212 -1.7143618 1.95927063 0 0 Z " fill="#F3EEE4" transform="translate(165,202)"/>
<path d="M0 0 C0.33 0 0.66 0 1 0 C1.33 20.13 1.66 40.26 2 61 C2.66 61.33 3.32 61.66 4 62 C2.68 62.99 1.36 63.98 0 65 C0 43.55 0 22.1 0 0 Z " fill="#E8F3F6" transform="translate(176,107)"/>
<path d="M0 0 C2.10165427 7.48188919 0.95751735 14.60687645 -1 22 C-1.33 22 -1.66 22 -2 22 C-2.05454409 19.64551325 -2.0939279 17.29232125 -2.125 14.9375 C-2.14820312 13.62652344 -2.17140625 12.31554687 -2.1953125 10.96484375 C-1.99417522 6.88175701 -1.27165462 3.85000947 0 0 Z " fill="#493B35" transform="translate(91,173)"/>
<path d="M0 0 C0.33 0.66 0.66 1.32 1 2 C-0.07518118 4.44332726 -1.19808566 6.76754523 -2.4375 9.125 C-2.77587891 9.78371094 -3.11425781 10.44242188 -3.46289062 11.12109375 C-4.30149926 12.75106547 -5.14984811 14.37601909 -6 16 C-6.9700528 13.41907165 -7.14009383 12.34107231 -6.07421875 9.74609375 C-5.61660156 8.98425781 -5.15898437 8.22242188 -4.6875 7.4375 C-4.23761719 6.67308594 -3.78773438 5.90867188 -3.32421875 5.12109375 C-2.24645593 3.39476569 -1.12889071 1.69333607 0 0 Z " fill="#E2DBD2" transform="translate(231,200)"/>
<path d="M0 0 C0.99 0.33 1.98 0.66 3 1 C0.03 4.96 0.03 4.96 -3 9 C-3.33 7.68 -3.66 6.36 -4 5 C-2.0625 2.25 -2.0625 2.25 0 0 Z " fill="#141C24" transform="translate(181,176)"/>
<path d="M0 0 C0.66 0 1.32 0 2 0 C0.6062718 4.43458973 -1.60582235 6.87378374 -5 10 C-5.33 9.34 -5.66 8.68 -6 8 C-5.34 8 -4.68 8 -4 8 C-3.71125 7.236875 -3.4225 6.47375 -3.125 5.6875 C-2 3 -2 3 0 0 Z " fill="#141922" transform="translate(233,215)"/>
<path d="M0 0 C0.66 0 1.32 0 2 0 C2 1.65 2 3.3 2 5 C2.66 5.33 3.32 5.66 4 6 C2.68 6.99 1.36 7.98 0 9 C0 6.03 0 3.06 0 0 Z " fill="#E4EAEB" transform="translate(176,163)"/>
<path d="M0 0 C0.99 0.33 1.98 0.66 3 1 C0.03 4.96 0.03 4.96 -3 9 C-3.66 8.01 -4.32 7.02 -5 6 C-3.625 4 -3.625 4 -2 2 C-1.34 2 -0.68 2 0 2 C0 1.34 0 0.68 0 0 Z " fill="#EFE9DF" transform="translate(100,154)"/>
<path d="M0 0 C-0.33 2.64 -0.66 5.28 -1 8 C-3 6 -3 6 -3.125 3.375 C-3.08375 2.59125 -3.0425 1.8075 -3 1 C-1 0 -1 0 0 0 Z " fill="#060C17" transform="translate(239,203)"/>
<path d="M0 0 C2.89932357 2.39509338 3.50168276 4.31245243 4 8 C3.01 7.67 2.02 7.34 1 7 C0.67 4.69 0.34 2.38 0 0 Z " fill="#111823" transform="translate(235,168)"/>
</svg>
